<svg xmlns="http://www.w3.org/2000/svg" width="252.901" height="56.49" viewBox="0 0 252.901 56.49"><defs><style>.a,.b,.c{fill:#e35050;}.b{font-size:26px;font-family:Montserrat-Bold, Montserrat;font-weight:700;}.c{font-size:16px;font-family:Montserrat-Regular, Montserrat;}</style></defs><g transform="translate(0 0)"><path class="a" d="M399.641,252.7V216.67l-6.381,2.374-3.338,1.244-3.04,1.13-3.338,1.262-12.758,4.747v14.535l-6.377-2.355V273.16h22.473v-18.1l-3.338-1.244v15.754h-15.8V244.39l9.42,3.507v14.569h-3.043V250.322l-3.338-1.244v16.927h9.719V249.137l22.175,8.254v12.191h-9.42v-8.578l3.043,1.13v3.89h3.338v-6.208l-9.718-3.614V273.13h16.1V255.062Zm-3.338-1.244-9.42-3.5V232.1l3.04-1.13v14.646l3.338,1.244V226.164l-9.715,3.617v16.927l-9.42-3.5V229.726l3.043-1.13v12.269l3.338,1.24V227.353l15.8-5.888Z" transform="translate(-364.41 -216.67)"/></g><text class="b" transform="translate(52.901 25)"><tspan x="0" y="0">Your Company</tspan></text><text class="c" transform="translate(52.901 46.659)"><tspan x="0" y="0">Tagline Goes Here</tspan></text></svg>