<svg xmlns="http://www.w3.org/2000/svg" width="35" height="35" viewBox="0 0 35 35"><defs><style>.a{fill:#29d568;}</style></defs><path class="a" d="M17.5,0A17.5,17.5,0,1,0,35,17.5,17.5,17.5,0,0,0,17.5,0Zm.371,27.689h0a10.47,10.47,0,0,1-5.005-1.275L7.309,27.871l1.486-5.426a10.475,10.475,0,1,1,9.076,5.244Zm0,0"/><path class="a" d="M142.78,124.469A8.707,8.707,0,0,0,135.4,137.8l.207.329-.88,3.212,3.295-.864.318.189a8.692,8.692,0,0,0,4.431,1.213h0a8.706,8.706,0,0,0,0-17.412Zm5.121,12.444a2.7,2.7,0,0,1-1.766,1.244,3.591,3.591,0,0,1-1.648-.1,15.115,15.115,0,0,1-1.492-.551,11.665,11.665,0,0,1-4.471-3.95,5.089,5.089,0,0,1-1.069-2.707,2.934,2.934,0,0,1,.916-2.182.962.962,0,0,1,.7-.327c.174,0,.349,0,.5.009s.376-.061.589.449.742,1.812.807,1.942a.482.482,0,0,1,.022.458,7.452,7.452,0,0,1-.654.895c-.116.144-.268.272-.115.534a7.889,7.889,0,0,0,1.456,1.812,7.155,7.155,0,0,0,2.1,1.3c.261.131.414.109.567-.065s.654-.764.829-1.026.349-.218.589-.131,1.527.72,1.788.851.436.2.5.306a2.183,2.183,0,0,1-.152,1.244Zm0,0" transform="translate(-124.906 -115.96)"/></svg>