<svg xmlns="http://www.w3.org/2000/svg" width="35" height="35" viewBox="0 0 35 35"><defs><style>.a{fill:#fff;stroke:#e35050;}.b{fill:#e35050;}.c{stroke:none;}.d{fill:none;}</style></defs><g transform="translate(-1107 -630)"><g class="a" transform="translate(1107 630)"><circle class="c" cx="17.5" cy="17.5" r="17.5"/><circle class="d" cx="17.5" cy="17.5" r="17"/></g><path class="b" d="M8.429,15a.989.989,0,0,1-.652-.245C7.1,14.157,6.44,13.6,5.86,13.1l0,0A35.649,35.649,0,0,1,1.672,9.173,6.274,6.274,0,0,1,0,5.066a5.269,5.269,0,0,1,1.337-3.6A4.533,4.533,0,0,1,4.709,0,4.24,4.24,0,0,1,7.358.914,5.419,5.419,0,0,1,8.429,2.033,5.42,5.42,0,0,1,9.5.914,4.24,4.24,0,0,1,12.148,0,4.533,4.533,0,0,1,15.52,1.468a5.269,5.269,0,0,1,1.337,3.6,6.274,6.274,0,0,1-1.672,4.107A35.645,35.645,0,0,1,11,13.1c-.58.494-1.238,1.055-1.92,1.652A.989.989,0,0,1,8.429,15ZM4.709.988a3.556,3.556,0,0,0-2.646,1.15A4.286,4.286,0,0,0,.987,5.066,5.279,5.279,0,0,0,2.432,8.543,35.081,35.081,0,0,0,6.5,12.35l0,0c.581.5,1.241,1.057,1.927,1.657.69-.6,1.35-1.164,1.933-1.66a35.089,35.089,0,0,0,4.065-3.807A5.28,5.28,0,0,0,15.87,5.066a4.286,4.286,0,0,0-1.076-2.929A3.556,3.556,0,0,0,12.148.988,3.275,3.275,0,0,0,10.1,1.7a4.792,4.792,0,0,0-1.14,1.319.623.623,0,0,1-1.071,0A4.787,4.787,0,0,0,6.754,1.7,3.275,3.275,0,0,0,4.709.988Zm0,0" transform="translate(1115.831 641.629)"/></g></svg>