<svg xmlns="http://www.w3.org/2000/svg" xmlns:xlink="http://www.w3.org/1999/xlink" width="171" height="87" viewBox="0 0 171 87"><defs><style>.a,.d{fill:#fff;}.a{stroke:#e35050;}.b,.e{fill:#e35050;}.c,.g{fill:none;}.e{font-size:14px;font-family:Montserrat-Bold, Montserrat;font-weight:700;}.f,.h{stroke:none;}.h{fill:#fff;}.i{filter:url(#a);}</style><filter id="a" x="0" y="0" width="171" height="87" filterUnits="userSpaceOnUse"><feOffset dx="6" dy="6" input="SourceAlpha"/><feGaussianBlur stdDeviation="3.5" result="b"/><feFlood flood-opacity="0.161"/><feComposite operator="in" in2="b"/><feComposite in="SourceGraphic"/></filter></defs><g transform="translate(-1697.5 -949.5)"><g class="i" transform="matrix(1, 0, 0, 1, 1697.5, 949.5)"><g class="a" transform="translate(4.5 4.5)"><rect class="f" width="150" height="66" rx="33"/><rect class="g" x="0.5" y="0.5" width="149" height="65" rx="32.5"/></g></g><ellipse class="b" cx="32" cy="33" rx="32" ry="33" transform="translate(1788 954)"/><g transform="translate(1800.883 976.133)"><g class="c" transform="translate(0 0)"><path class="f" d="M19.32,21.578H8a8,8,0,0,1-8-8V8A8,8,0,0,1,8,0H29.368a8,8,0,0,1,8,8v5.578a8,8,0,0,1-8,8h-.991v5.24Z"/><path class="h" d="M 25.37700080871582 21.61668014526367 L 25.37700080871582 21.57839965820313 L 25.37700080871582 18.57839965820313 L 28.37700080871582 18.57839965820313 L 29.36790084838867 18.57839965820313 C 32.12496185302734 18.57839965820313 34.36800003051758 16.33536148071289 34.36800003051758 13.57830047607422 L 34.36800003051758 8.000100135803223 C 34.36800003051758 5.243040561676025 32.12496185302734 3.000000476837158 29.36790084838867 3.000000476837158 L 8.000100135803223 3.000000476837158 C 5.243040084838867 3.000000476837158 3 5.243040561676025 3 8.000100135803223 L 3 13.57830047607422 C 3 16.33536148071289 5.243040084838867 18.57839965820313 8.000100135803223 18.57839965820313 L 19.32008934020996 18.57839965820313 L 20.12537002563477 18.57839965820313 L 20.82241058349609 18.98166084289551 L 25.37700080871582 21.61668014526367 M 28.37700080871582 26.81820106506348 L 19.32008934020996 21.57839965820313 L 8.000100135803223 21.57839965820313 C 3.581099987030029 21.57839965820313 1.525878801089675e-08 17.99730110168457 1.525878801089675e-08 13.57830047607422 L 1.525878801089675e-08 8.000100135803223 C 1.525878801089675e-08 3.582000494003296 3.581099987030029 5.325317147253372e-07 8.000100135803223 5.325317147253372e-07 L 29.36790084838867 5.325317147253372e-07 C 33.7859992980957 5.325317147253372e-07 37.36800003051758 3.582000494003296 37.36800003051758 8.000100135803223 L 37.36800003051758 13.57830047607422 C 37.36800003051758 17.99730110168457 33.7859992980957 21.57839965820313 29.36790084838867 21.57839965820313 L 28.37700080871582 21.57839965820313 L 28.37700080871582 26.81820106506348 Z"/></g><circle class="d" cx="2.843" cy="2.843" r="2.843" transform="translate(6.092 8.124)"/><circle class="d" cx="2.843" cy="2.843" r="2.843" transform="translate(15.841 8.124)"/><circle class="d" cx="2.843" cy="2.843" r="2.843" transform="translate(25.589 8.124)"/></g><text class="e" transform="translate(1781 983)"><tspan x="-40.46" y="0">CHAT</tspan><tspan x="-64.554" y="16">WITH US</tspan></text></g></svg>