<svg xmlns="http://www.w3.org/2000/svg" width="19.021" height="19.021" viewBox="0 0 19.021 19.021"><defs><style>.a{fill:#fff;}</style></defs><g transform="translate(0 0)"><g transform="translate(0 0)"><path class="a" d="M16.234,2.784A9.51,9.51,0,1,0,19.02,9.508,9.51,9.51,0,0,0,16.234,2.784ZM14.4,13.247h0v0l-.482.479a2.536,2.536,0,0,1-2.393.685,8.427,8.427,0,0,1-2.447-1.1,11.307,11.307,0,0,1-1.931-1.557,11.394,11.394,0,0,1-1.442-1.75A8.875,8.875,0,0,1,4.622,7.812a2.536,2.536,0,0,1,.634-2.59l.564-.564a.4.4,0,0,1,.569,0h0L8.172,6.439a.4.4,0,0,1,0,.569h0L7.126,8.056a.853.853,0,0,0-.089,1.11,12.235,12.235,0,0,0,1.252,1.461,12.16,12.16,0,0,0,1.648,1.385.859.859,0,0,0,1.1-.1l1.011-1.027a.4.4,0,0,1,.569,0h0L14.4,12.678A.4.4,0,0,1,14.4,13.247Z" transform="translate(0 0)"/></g></g></svg>