<svg xmlns="http://www.w3.org/2000/svg" width="35" height="35" viewBox="0 0 35 35"><defs><style>.a{fill:#55acee;}.b{fill:#f1f2f2;}</style></defs><circle class="a" cx="17.5" cy="17.5" r="17.5" transform="translate(0 0)"/><g transform="translate(7.831 10.615)"><path class="b" d="M45.492,35.99a8.346,8.346,0,0,1-2.4.658,4.194,4.194,0,0,0,1.84-2.314,8.374,8.374,0,0,1-2.656,1.015,4.187,4.187,0,0,0-7.128,3.816,11.874,11.874,0,0,1-8.622-4.371,4.188,4.188,0,0,0,1.294,5.585,4.153,4.153,0,0,1-1.894-.524c0,.018,0,.036,0,.053a4.185,4.185,0,0,0,3.356,4.1,4.2,4.2,0,0,1-1.889.072,4.187,4.187,0,0,0,3.908,2.9A8.444,8.444,0,0,1,25.1,48.718,11.9,11.9,0,0,0,43.416,38.7c0-.181,0-.362-.012-.541a8.482,8.482,0,0,0,2.088-2.165Z" transform="translate(-25.103 -34.028)"/></g></svg>